<?xml version="1.0" encoding="UTF-8" standalone="no"?>
<!-- Created with Inkscape (http://www.inkscape.org/) -->

<svg
   width="64"
   height="64"
   viewBox="0 0 64 64"
   version="1.1"
   id="SVGRoot"
   xml:space="preserve"
   xmlns="http://www.w3.org/2000/svg"
   xmlns:svg="http://www.w3.org/2000/svg"><defs
     id="defs14368" /><g
     id="layer1"><rect
       style="fill:#009bff;fill-opacity:1;stroke:none;stroke-width:2.005;stroke-linecap:round;stroke-linejoin:round"
       id="rect1372"
       width="64"
       height="64"
       x="-1.9073486e-06"
       y="2.3841858e-07"
       ry="0" /><path
       id="rect306-3-1"
       style="fill:#1600e1;fill-opacity:1;stroke:none;stroke-width:0.199353;stroke-dasharray:none;stroke-opacity:1"
       d="m 30.294463,16.739294 c -0.792134,0.0048 -1.605182,0.223175 -1.968637,0.555263 0,0 -0.09549,1.220574 -0.05479,1.897842 h -8.548351 c -2.980699,0 -5.380266,2.449645 -5.380266,5.492551 l 1e-6,14.853303 c -1e-6,3.042906 2.399566,5.494623 5.380264,5.494623 h 21.445971 c 2.906029,0 5.251988,-2.33222 5.368087,-5.268789 0.0142,-0.0473 0.03368,-0.09327 0.04667,-0.140888 l 3.468432,-12.704763 c 0.775405,-2.839476 -0.923956,-5.125829 -3.811445,-5.125829 h -0.499232 c -0.946801,-1.56124 -2.634259,-2.600208 -4.572514,-2.600208 h -9.094292 c 0.08799,-0.844865 -0.05683,-1.897842 -0.05683,-1.897842 C 31.67584,16.89669 30.9934,16.73498 30.294466,16.739294 Z m -0.174536,0.758308 c 0.514825,-0.007 1.063784,0.115946 1.394282,0.287991 l -0.127859,1.000718 c -0.839091,-0.229677 -1.170015,-0.390781 -2.244653,0.02693 l -0.04465,-1.02558 c 0.242973,-0.200792 0.62246,-0.284676 1.02288,-0.290062 z" /><rect
       style="fill:#ff9f00;fill-opacity:1;stroke:#ffc928;stroke-width:0.283791;stroke-dasharray:none;stroke-opacity:1"
       id="rect306-3"
       width="40.301525"
       height="32.954433"
       x="23.518976"
       y="17.983156"
       ry="7.357769"
       transform="matrix(0.68171203,0,-0.18306656,0.65667185,10.503765,10.523165)" /><rect
       style="fill:#d0c1a3;fill-opacity:1;stroke:none;stroke-width:0.271291;stroke-dasharray:none;stroke-opacity:1"
       id="rect306-3-5"
       width="39.550331"
       height="30.68693"
       x="22.891399"
       y="20.376698"
       ry="6.8515019"
       transform="matrix(0.68171203,0,-0.19292923,0.65384218,10.503765,10.523165)" /><rect
       style="fill:#d5c8bb;fill-opacity:1;stroke:none;stroke-width:0.107878;stroke-dasharray:none;stroke-opacity:1"
       id="rect306-3-5-3"
       width="39.550331"
       height="30.68693"
       x="22.379955"
       y="20.744398"
       ry="6.8515019"
       transform="matrix(0.68171203,0,-0.19292923,0.65384218,10.503765,10.523165)" /><rect
       style="fill:#ebdeca;fill-opacity:1;stroke:none;stroke-width:0.103362;stroke-dasharray:none;stroke-opacity:1"
       id="rect306-3-5-3-5"
       width="37.865051"
       height="29.425451"
       x="23.458019"
       y="21.279003"
       ry="6.5698509"
       transform="matrix(0.68171203,0,-0.19262682,0.65393134,10.503765,10.523165)" /><rect
       style="fill:#ffc928;fill-opacity:1;stroke:#ff9f00;stroke-width:0.285361;stroke-dasharray:none;stroke-opacity:1"
       id="rect306"
       width="45.465015"
       height="35.731018"
       x="6.6042376"
       y="13.726954"
       ry="7.5952811"
       transform="matrix(0.68171203,0,0,0.68171203,10.503765,10.523165)" /><rect
       style="fill:#200000;fill-opacity:1;stroke:none;stroke-width:0;stroke-linecap:round;stroke-linejoin:round;stroke-dasharray:none;stroke-opacity:1"
       id="rect17518"
       width="3.2472129"
       height="2.1648085"
       x="24.910709"
       y="23.409222"
       ry="0"
       transform="translate(2.0576641,-0.06528388)" /><rect
       style="fill:#200000;fill-opacity:1;stroke:none;stroke-width:0;stroke-linecap:round;stroke-linejoin:round;stroke-dasharray:none;stroke-opacity:1"
       id="rect17518-9"
       width="3.2472129"
       height="2.1648085"
       x="28.157921"
       y="25.574032"
       ry="0"
       transform="translate(2.0576641,-0.06528388)" /><rect
       style="fill:#200000;fill-opacity:1;stroke:none;stroke-width:0;stroke-linecap:round;stroke-linejoin:round;stroke-dasharray:none;stroke-opacity:1"
       id="rect17518-1"
       width="3.2472129"
       height="2.1648085"
       x="24.929487"
       y="27.705631"
       ry="0"
       transform="translate(2.0576641,-0.06528388)" /><rect
       style="fill:#200000;fill-opacity:1;stroke:none;stroke-width:0;stroke-linecap:round;stroke-linejoin:round;stroke-dasharray:none;stroke-opacity:1"
       id="rect17518-2"
       width="3.2472129"
       height="2.1648085"
       x="28.157921"
       y="29.903648"
       ry="0"
       transform="translate(2.0576641,-0.06528388)" /><rect
       style="fill:#200000;fill-opacity:1;stroke:none;stroke-width:0;stroke-linecap:round;stroke-linejoin:round;stroke-dasharray:none;stroke-opacity:1"
       id="rect17518-7"
       width="3.2472129"
       height="2.1648085"
       x="24.844088"
       y="32.049408"
       ry="0"
       transform="translate(2.0576641,-0.06528388)" /><rect
       style="fill:#200000;fill-opacity:1;stroke:none;stroke-width:0;stroke-linecap:round;stroke-linejoin:round;stroke-dasharray:none;stroke-opacity:1"
       id="rect17518-0"
       width="3.2472129"
       height="2.1648085"
       x="28.157921"
       y="34.233265"
       ry="0"
       transform="translate(2.0576641,-0.06528388)" /><rect
       style="fill:#200000;fill-opacity:1;stroke:none;stroke-width:0;stroke-linecap:round;stroke-linejoin:round;stroke-dasharray:none;stroke-opacity:1"
       id="rect17518-93"
       width="3.2472129"
       height="2.1648085"
       x="24.956144"
       y="36.391586"
       ry="0"
       transform="translate(2.0576641,-0.06528388)" /><rect
       style="fill:#200000;fill-opacity:1;stroke:none;stroke-width:0;stroke-linecap:round;stroke-linejoin:round;stroke-dasharray:none;stroke-opacity:1"
       id="rect17518-6"
       width="3.2472129"
       height="2.1648085"
       x="28.162683"
       y="38.579281"
       ry="0"
       transform="translate(2.0576641,-0.06528388)" /><rect
       style="fill:#200000;fill-opacity:1;stroke:none;stroke-width:0;stroke-linecap:round;stroke-linejoin:round;stroke-dasharray:none;stroke-opacity:1"
       id="rect17518-06"
       width="3.2472129"
       height="2.1648085"
       x="24.900934"
       y="40.726612"
       ry="0"
       transform="translate(2.0576641,-0.06528388)" /><rect
       style="fill:#200000;fill-opacity:1;stroke:none;stroke-width:0;stroke-linecap:round;stroke-linejoin:round;stroke-dasharray:none;stroke-opacity:1"
       id="rect17518-26"
       width="3.2472129"
       height="1.2082273"
       x="28.157921"
       y="42.892502"
       ry="0"
       transform="translate(2.0576641,-0.06528388)" /><path
       id="path19729"
       style="fill:#200000;fill-opacity:1;stroke:none;stroke-width:0;stroke-linecap:round;stroke-linejoin:round;stroke-dasharray:none;stroke-opacity:1"
       d="m 30.356561,17.567954 c -0.762308,0.0045 -1.544716,0.210185 -1.89449,0.52324 0,0 -0.137575,1.751159 0,2.131821 0,0 0.884956,2.507946 1.421215,2.842426 h 0.710606 c 0.433726,-0.273785 1.225753,-2.165306 1.421213,-2.842426 0.184236,-0.816974 0,-2.131821 0,-2.131821 -0.328829,-0.375063 -0.98592,-0.527307 -1.658544,-0.52324 z m -0.166548,0.71477 c 0.495446,-0.0066 1.022656,0.109847 1.340714,0.27203 l -0.122136,0.943774 c -0.807504,-0.216513 -1.12678,-0.368783 -2.160966,0.02499 l -0.04303,-0.96737 c 0.233827,-0.189284 0.600065,-0.268338 0.985412,-0.273416 z" /></g></svg>
