<?xml version="1.0" encoding="UTF-8" standalone="no"?>
<!-- Created with Inkscape (http://www.inkscape.org/) -->

<svg
   width="64"
   height="64"
   viewBox="0 0 64 64"
   version="1.1"
   id="SVGRoot"
   sodipodi:docname="json.svg"
   inkscape:version="1.2.2 (b0a8486541, 2022-12-01)"
   inkscape:export-filename="../Documents/Github Projects/File Browser 2.0/FileBrowser2.0/Assets/Icons/JSON.svg"
   inkscape:export-xdpi="96"
   inkscape:export-ydpi="96"
   xmlns:inkscape="http://www.inkscape.org/namespaces/inkscape"
   xmlns:sodipodi="http://sodipodi.sourceforge.net/DTD/sodipodi-0.dtd"
   xmlns="http://www.w3.org/2000/svg"
   xmlns:svg="http://www.w3.org/2000/svg">
  <sodipodi:namedview
     id="namedview7716"
     pagecolor="#ffffff"
     bordercolor="#000000"
     borderopacity="0.25"
     inkscape:showpageshadow="2"
     inkscape:pageopacity="0.0"
     inkscape:pagecheckerboard="0"
     inkscape:deskcolor="#d1d1d1"
     inkscape:document-units="px"
     showgrid="true"
     inkscape:zoom="11.189113"
     inkscape:cx="24.264658"
     inkscape:cy="31.995387"
     inkscape:window-width="1920"
     inkscape:window-height="1000"
     inkscape:window-x="0"
     inkscape:window-y="0"
     inkscape:window-maximized="1"
     inkscape:current-layer="layer3">
    <inkscape:grid
       type="xygrid"
       id="grid8202" />
  </sodipodi:namedview>
  <defs
     id="defs7711">
    <rect
       x="7.590735"
       y="7.3135405"
       width="48.660233"
       height="47.531902"
       id="rect14815" />
    <filter
       inkscape:collect="always"
       style="color-interpolation-filters:sRGB"
       id="filter53086"
       x="-0.054194867"
       y="-0.054407277"
       width="1.1083897"
       height="1.1088146">
      <feGaussianBlur
         inkscape:collect="always"
         stdDeviation="1.4335571"
         id="feGaussianBlur53088" />
    </filter>
    <filter
       inkscape:collect="always"
       style="color-interpolation-filters:sRGB"
       id="filter53915"
       x="-0.028890006"
       y="-0.029075872"
       width="1.05778"
       height="1.0581517">
      <feGaussianBlur
         inkscape:collect="always"
         stdDeviation="0.56294021"
         id="feGaussianBlur53917" />
    </filter>
    <filter
       inkscape:collect="always"
       style="color-interpolation-filters:sRGB"
       id="filter41787"
       x="-0.010207104"
       y="-0.01013459"
       width="1.0204142"
       height="1.0202692">
      <feGaussianBlur
         inkscape:collect="always"
         stdDeviation="0.24964543"
         id="feGaussianBlur41789" />
    </filter>
    <filter
       inkscape:collect="always"
       style="color-interpolation-filters:sRGB"
       id="filter54038"
       x="-0.070068943"
       y="-0.069606752"
       width="1.1401379"
       height="1.1392135">
      <feGaussianBlur
         inkscape:collect="always"
         stdDeviation="0.76425953"
         id="feGaussianBlur54040" />
    </filter>
    <rect
       x="7.590735"
       y="7.3135405"
       width="48.660233"
       height="47.531902"
       id="rect14815-5" />
  </defs>
  <g
     inkscape:label="Layer 1"
     inkscape:groupmode="layer"
     id="layer1"
     style="display:none">
    <rect
       style="display:inline;mix-blend-mode:normal;fill:#ffc500;fill-opacity:1;stroke:none;stroke-width:0.305;stroke-dasharray:none;stroke-opacity:1;filter:url(#filter53086)"
       id="rect5640"
       width="63.484558"
       height="63.23671"
       x="0.22693165"
       y="0.38164511"
       ry="5.9244967"
       transform="matrix(0.88454163,0,0,0.88066771,4.4860322,3.6548232)" />
    <rect
       style="display:inline;mix-blend-mode:normal;fill:#ffffff;fill-opacity:1;stroke:none;stroke-width:0.224272;stroke-dasharray:none;stroke-opacity:1;filter:url(#filter53915)"
       id="rect53912"
       width="46.76553"
       height="46.466583"
       x="8.6834269"
       y="8.7817812"
       ry="4.3533435"
       transform="matrix(1.1825757,0,0,1.1825757,-5.0418805,-6.0062323)" />
    <rect
       style="display:inline;fill:#fad54d;fill-opacity:1;stroke:none;stroke-width:0.26318;stroke-dasharray:none;stroke-opacity:1"
       id="rect39706"
       width="54.810009"
       height="54.596024"
       x="5.473814"
       y="4.5560017"
       ry="5.1149716" />
    <path
       style="color:#000000;display:inline;fill:#ebd993;fill-opacity:0.556525;-inkscape-stroke:none;filter:url(#filter41787)"
       d="M 5.5532755,3.6943032 C 3.5017488,3.4121863 3.9419642,4.2773947 2.4609375,5.5488281 V 59 l 3.6210937,2.832031 H 58.509766 l 2.65039,-2.767578 V 6.4589844 L 58.533203,3.3535156 Z m 52.1459435,1.4580405 1.662109,1.9648438 c 0,0 1.684568,35.2002325 0.459526,48.2618505 0.654045,12.521365 -41.98949,4.654165 -53.1196821,4.654165 L 4.2578125,58.123047 c 0,0 -0.9544343,-32.900889 -0.9050272,-51.6466076 8.7134967,-7.03046943 28.0225267,0.952964 54.3464337,-1.3240957 z"
       id="path53926"
       transform="matrix(0.88315519,0,0,0.88315519,4.5303559,3.5752236)"
       sodipodi:nodetypes="cccccccccccccccc" />
    <path
       style="display:none;fill:none;fill-opacity:0.556525;stroke:#94ff83;stroke-width:2.005;stroke-linecap:round;stroke-linejoin:round;stroke-dasharray:none;stroke-opacity:1;filter:url(#filter54038)"
       d="M 12.896178,47.129649 12.771894,6.6728431 52.983972,6.4375421 53.256629,47.191093 Z"
       id="path53982" />
    <text
       xml:space="preserve"
       id="text14813"
       style="font-weight:bold;font-size:37.3333px;font-family:'Comic Neue';-inkscape-font-specification:'Comic Neue Bold';text-align:justify;white-space:pre;shape-inside:url(#rect14815);display:inline;fill:#ffffff;stroke-width:0.298"
       transform="matrix(1.1993519,0,0,1.3425529,-1.9281781,-6.3714204)"><tspan
         x="7.5898438"
         y="41.283098"
         id="tspan2160">{ }</tspan></text>
  </g>
  <g
     inkscape:groupmode="layer"
     id="layer3"
     inkscape:label="Layer 2">
    <rect
       style="fill:#ff8e00;fill-opacity:1;stroke:none;stroke-width:2.005;stroke-linecap:round;stroke-linejoin:round"
       id="rect1372"
       width="64"
       height="64"
       x="0"
       y="-4.4703484e-07"
       ry="0" />
  </g>
  <g
     aria-label="{ }"
     transform="matrix(0.93139351,0,0,1.0426006,5.8704479,2.1180946)"
     id="text14813-6"
     style="font-weight:bold;font-size:37.3333px;font-family:'Comic Neue';-inkscape-font-specification:'Comic Neue Bold';text-align:justify;white-space:pre;shape-inside:url(#rect14815-5);display:inline;fill:#ffffff;stroke:#8f3e00;stroke-width:0.298;stroke-opacity:1">
    <path
       d="m 18.528501,45.641145 q -0.933332,0 -2.314665,-0.597333 -1.381332,-0.597333 -2.463997,-1.903998 -1.045333,-1.306666 -1.045333,-3.322664 v -6.943994 q 0,-0.933333 -0.485333,-1.567999 -0.485333,-0.671999 -1.231999,-0.970666 -0.634666,-0.223999 -0.895999,-0.597332 -0.2613332,-0.410667 -0.2613332,-0.970666 0,-0.672 0.2240002,-1.007999 0.223999,-0.336 0.858666,-0.634666 1.045332,-0.522667 1.418665,-1.119999 0.373333,-0.597333 0.373333,-1.455999 v -6.421328 q 0,-2.015998 1.082666,-3.322664 1.082666,-1.306666 2.501331,-1.903998 1.418665,-0.597333 2.389331,-0.597333 0.746666,0 1.194666,0.559999 0.485333,0.522667 0.485333,1.231999 0,1.418666 -1.567999,1.754665 -0.970666,0.186667 -1.791998,0.746667 -0.784,0.522666 -0.784,1.530665 v 6.383994 q 0,2.538665 -1.567998,4.218664 1.567998,1.903998 1.567998,4.181329 v 6.906661 q 0,1.007999 0.821333,1.567999 0.821333,0.559999 1.754665,0.709332 0.709333,0.149334 1.119999,0.597333 0.448,0.485333 0.448,1.157333 0,0.821332 -0.522666,1.306665 -0.485333,0.485333 -1.306666,0.485333 z"
       id="path7115"
       style="stroke:#8f3e00;stroke-opacity:1" />
    <path
       d="m 38.315184,45.641145 q -0.746666,0 -1.231999,-0.559999 -0.448,-0.522667 -0.448,-1.231999 0,-1.418666 1.567999,-1.754666 0.970666,-0.186666 1.754665,-0.746666 0.821333,-0.522666 0.821333,-1.530665 v -6.383994 q 0,-2.538665 1.567999,-4.218664 -1.567999,-1.903998 -1.567999,-4.181329 v -6.906661 q 0,-1.007999 -0.821333,-1.567999 -0.821332,-0.559999 -1.791998,-0.709333 -0.672,-0.149333 -1.119999,-0.634666 -0.410667,-0.485333 -0.410667,-1.119999 0,-0.821332 0.485333,-1.306665 0.522667,-0.485333 1.343999,-0.485333 0.933333,0 2.314665,0.597333 1.381332,0.597332 2.426664,1.903998 1.082666,1.306666 1.082666,3.322664 v 6.943994 q 0,0.933333 0.485333,1.605332 0.485333,0.634666 1.231999,0.933332 0.634666,0.224 0.895999,0.634667 0.261333,0.373333 0.261333,0.933332 0,0.672 -0.223999,1.007999 -0.224,0.336 -0.858666,0.634666 -1.045333,0.522667 -1.418666,1.119999 -0.373333,0.597333 -0.373333,1.455999 v 6.421328 q 0,2.015998 -1.082666,3.322664 -1.082665,1.306665 -2.501331,1.903998 -1.418665,0.597333 -2.389331,0.597333 z"
       id="path7117"
       style="stroke:#8f3e00;stroke-opacity:1" />
  </g>
</svg>
