<?xml version="1.0" encoding="UTF-8" standalone="no"?>
<!-- Created with Inkscape (http://www.inkscape.org/) -->

<svg
   width="64"
   height="64"
   viewBox="0 0 64 64"
   version="1.1"
   id="SVGRoot"
   sodipodi:docname="pdf.svg"
   xml:space="preserve"
   inkscape:version="1.2.2 (b0a8486541, 2022-12-01)"
   xmlns:inkscape="http://www.inkscape.org/namespaces/inkscape"
   xmlns:sodipodi="http://sodipodi.sourceforge.net/DTD/sodipodi-0.dtd"
   xmlns="http://www.w3.org/2000/svg"
   xmlns:svg="http://www.w3.org/2000/svg"><sodipodi:namedview
     id="namedview24061"
     pagecolor="#ffffff"
     bordercolor="#000000"
     borderopacity="0.25"
     inkscape:showpageshadow="2"
     inkscape:pageopacity="0.0"
     inkscape:pagecheckerboard="0"
     inkscape:deskcolor="#d1d1d1"
     inkscape:document-units="px"
     showgrid="true"
     inkscape:zoom="4.0748896"
     inkscape:cx="-21.963785"
     inkscape:cy="48.958382"
     inkscape:window-width="1452"
     inkscape:window-height="991"
     inkscape:window-x="26"
     inkscape:window-y="9"
     inkscape:window-maximized="0"
     inkscape:current-layer="layer1"><inkscape:grid
       type="xygrid"
       id="grid24547" /></sodipodi:namedview><defs
     id="defs24056" /><g
     inkscape:label="Layer 1"
     inkscape:groupmode="layer"
     id="layer1"><rect
       style="fill:#ff000f;fill-opacity:1;stroke:none;stroke-width:2.005;stroke-linecap:round;stroke-linejoin:round"
       id="rect1372"
       width="64"
       height="64"
       x="-1.9669533e-06"
       y="-1.7210841e-06"
       ry="0"
       rx="0" /><g
       style="fill:#ffffff;fill-opacity:1;stroke:#9f0000;stroke-width:6.39328;stroke-dasharray:none;stroke-opacity:1"
       id="g27494"
       transform="matrix(0.21045723,0,0,0.21045723,11.051391,13.021463)"><path
         style="color:#000000;fill:#ffffff;fill-opacity:1;stroke:#9f0000;stroke-width:6.39328;stroke-linecap:round;stroke-linejoin:round;stroke-dasharray:none;stroke-opacity:1"
         d="m 88.810547,16.037109 c -1.210849,-0.09571 -2.424864,-0.0039 -3.59375,0.300782 -4.675546,1.218531 -8.068268,4.788658 -10.300781,9.277343 -2.207332,4.438054 -3.347606,10.00919 -3.160157,16.50586 a 6.0006,6.0006 0 0 0 -0.0078,0.01367 h 0.0078 c 0.002,0.06942 -0.0062,0.131543 -0.0039,0.201171 a 6.0006,6.0006 0 0 0 0.0293,0.04883 h -0.02734 c 0.608854,14.569345 3.846914,24.796926 8.982422,33.457031 0.558361,0.941575 1.200136,1.808097 1.792969,2.714844 -2.928683,6.831745 -6.128261,13.726185 -9.47461,21.107421 a 6.0006,6.0006 0 0 0 -0.002,0.0039 C 70.670894,104.9329 66.852603,112.511 62.642544,120.44335 c -15.291971,5.50779 -28.12339,13.52645 -38.865234,25.5957 -4.105118,4.5594 -6.608148,9.12479 -7.476563,13.66992 -0.869278,4.54966 0.115321,9.36887 3.294922,12.60157 3.179601,3.23269 7.998463,4.26371 12.455078,3.39453 4.441569,-0.86624 8.801015,-3.37523 12.984375,-7.40235 7.558021,-7.09311 15.100535,-18.78138 22.097656,-30.9375 1.383259,-2.40313 2.51772,-4.68017 3.824219,-7.07226 7.433497,-2.33726 15.570634,-4.20056 24.759766,-5.67774 6.318187,-0.97095 14.486307,-1.64104 22.892587,-2.01757 11.01569,11.71993 20.78328,19.45629 30.54296,22.09765 a 6.0006,6.0006 0 0 0 0.0176,0.006 c 10.69621,2.86129 20.51387,0.36193 25,-6.97265 2.24307,-3.66729 2.48731,-8.72226 0.38672,-12.78125 -2.10059,-4.059 -5.96273,-7.12474 -11.16211,-9.38086 -11.35017,-4.92517 -25.96936,-5.93921 -39.98242,-5.51563 -4.34662,-4.7762 -8.98399,-10.229685 -13.95117,-16.521481 a 6.0006,6.0006 0 0 0 -0.01,-0.01172 C 104.26026,86.976622 99.837,81.849963 96.160156,77.050781 100.79873,65.062389 104.14943,52.373899 103.31641,37.548828 102.92704,30.619414 101.38532,25.254015 98.335937,21.279297 96.048904,18.298258 92.443092,16.324229 88.810547,16.037109 Z m -0.566406,11.91211 c 0.142324,-0.03709 -0.301024,-0.50098 0.570312,0.634765 0.871337,1.135746 2.219851,4.268646 2.521484,9.636719 0.517293,9.206078 -0.858853,17.534746 -3.255859,25.619141 -2.428366,-5.671092 -3.926894,-12.304926 -4.332031,-21.921875 -0.162143,-4.923765 0.763552,-8.647745 1.912109,-10.957032 1.149952,-2.312089 2.441661,-2.974626 2.583985,-3.011718 z m 2.628906,61.830078 c 2.884665,3.517244 5.896027,7.062059 9.177733,11.197263 2.91927,3.69758 5.53098,6.71442 8.24414,9.96485 -5.22123,0.53106 -10.206329,1.16649 -14.41992,1.81445 a 6.0006,6.0006 0 0 0 -0.03906,0.008 c -5.338498,0.85772 -10.372754,1.90746 -15.267578,3.06641 2.010874,-4.05561 4.033676,-8.15547 5.416016,-11.21094 l 0.002,-0.006 c 2.245869,-4.953614 4.609102,-9.867153 6.886719,-14.833983 z m 45.000003,32.660153 c 8.88406,0.44667 17.06686,1.67039 22.74609,4.13477 3.47961,1.50987 4.89873,3.15135 5.2793,3.88672 0.38056,0.73537 0.30746,0.56065 0.0352,1.00586 -0.54461,0.89041 -4.54933,3.54333 -11.66211,1.64062 -4.19168,-1.13894 -9.77241,-4.80087 -16.39843,-10.66797 z m -83.355472,15.62891 c -5.589173,9.04322 -11.332693,17.40008 -15.710937,21.50391 a 6.0006,6.0006 0 0 0 -0.06445,0.0605 c -2.940153,2.8384 -5.501934,4.00504 -6.988281,4.29492 -1.486347,0.28989 -1.616745,-0.0466 -1.603515,-0.0332 0.01323,0.0135 -0.386502,-0.23782 -0.0625,-1.93359 0.324001,-1.69577 1.589686,-4.54677 4.613281,-7.90235 a 6.0006,6.0006 0 0 0 0.02539,-0.0293 c 5.872922,-6.60189 12.386343,-11.78591 19.791016,-15.96094 z"
         id="path27485" /></g></g></svg>
