<?xml version="1.0" encoding="UTF-8" standalone="no"?>
<!-- Created with Inkscape (http://www.inkscape.org/) -->

<svg
   width="64"
   height="64"
   viewBox="0 0 64 64"
   version="1.1"
   id="SVGRoot"
   sodipodi:docname="rust.svg"
   xml:space="preserve"
   inkscape:version="1.2.2 (b0a8486541, 2022-12-01)"
   inkscape:export-filename="../Pictures/rust.svg"
   inkscape:export-xdpi="96"
   inkscape:export-ydpi="96"
   xmlns:inkscape="http://www.inkscape.org/namespaces/inkscape"
   xmlns:sodipodi="http://sodipodi.sourceforge.net/DTD/sodipodi-0.dtd"
   xmlns="http://www.w3.org/2000/svg"
   xmlns:svg="http://www.w3.org/2000/svg"><sodipodi:namedview
     id="namedview22022"
     pagecolor="#ffffff"
     bordercolor="#000000"
     borderopacity="0.25"
     inkscape:showpageshadow="2"
     inkscape:pageopacity="0.0"
     inkscape:pagecheckerboard="0"
     inkscape:deskcolor="#d1d1d1"
     inkscape:document-units="px"
     showgrid="true"
     inkscape:zoom="11.189113"
     inkscape:cx="37.044938"
     inkscape:cy="20.198205"
     inkscape:window-width="1920"
     inkscape:window-height="1000"
     inkscape:window-x="0"
     inkscape:window-y="0"
     inkscape:window-maximized="1"
     inkscape:current-layer="layer1"><inkscape:grid
       type="xygrid"
       id="grid22508" /></sodipodi:namedview><defs
     id="defs22017" /><g
     inkscape:label="Layer 1"
     inkscape:groupmode="layer"
     id="layer1"><rect
       style="fill:#ff1500;fill-opacity:1;stroke:none;stroke-width:2.005;stroke-linecap:round;stroke-linejoin:round"
       id="rect1372"
       width="64"
       height="64"
       x="0"
       y="0"
       ry="0" /><path
       d="m 49.841277,32.399692 -1.455304,-0.90019 c -0.01156,-0.141695 -0.02513,-0.283391 -0.04168,-0.423419 l 1.250262,-1.166913 c 0.126703,-0.118353 0.183382,-0.293391 0.150044,-0.463429 -0.03333,-0.170034 -0.153365,-0.31173 -0.315063,-0.371745 l -1.598669,-0.598457 c -0.04001,-0.138374 -0.0817,-0.275042 -0.125027,-0.413419 l 0.996874,-1.385288 c 0.101686,-0.140019 0.121706,-0.3234 0.05668,-0.485101 -0.06502,-0.161715 -0.21172,-0.275071 -0.381746,-0.303398 L 46.692295,25.61329 c -0.065,-0.128349 -0.133347,-0.253376 -0.203371,-0.378412 l 0.70848,-1.555322 c 0.07167,-0.158364 0.05835,-0.341739 -0.04001,-0.486771 -0.09836,-0.145018 -0.258373,-0.228388 -0.433423,-0.221715 l -1.710355,0.06 c -0.08835,-0.110031 -0.178393,-0.220037 -0.270054,-0.328398 l 0.393416,-1.667012 c 0.04001,-0.170035 -0.01011,-0.346739 -0.133375,-0.4701 -0.123352,-0.123351 -0.300066,-0.173357 -0.468433,-0.133347 l -1.665348,0.393417 c -0.108359,-0.09169 -0.218364,-0.181705 -0.328401,-0.270045 l 0.06003,-1.710358 c 0.0067,-0.173357 -0.07834,-0.338402 -0.221715,-0.433423 -0.143371,-0.09501 -0.328401,-0.111681 -0.485101,-0.04001 l -1.555322,0.708479 c -0.125028,-0.06835 -0.25173,-0.136697 -0.378413,-0.20337 l -0.27507,-1.685355 c -0.02831,-0.17171 -0.141695,-0.316733 -0.303396,-0.381746 -0.161714,-0.06503 -0.343406,-0.04501 -0.483434,0.05668 l -1.385294,0.996849 c -0.136698,-0.04333 -0.273396,-0.08502 -0.411751,-0.125027 l -0.598458,-1.598666 c -0.06003,-0.163361 -0.201725,-0.283391 -0.371745,-0.316733 -0.170034,-0.03334 -0.345072,0.0234 -0.463429,0.150044 l -1.166912,1.251929 c -0.140028,-0.01502 -0.281726,-0.03002 -0.423421,-0.04169 l -0.900188,-1.4553 c -0.09169,-0.146698 -0.253386,-0.236716 -0.426755,-0.236716 -0.173369,0 -0.33507,0.09001 -0.425089,0.236708 l -0.900187,1.455303 c -0.141696,0.01155 -0.283391,0.02658 -0.425089,0.04169 l -1.16691,-1.25193 c -0.118357,-0.126703 -0.293394,-0.18338 -0.463429,-0.150044 -0.170036,0.03334 -0.311733,0.153366 -0.371745,0.316734 l -0.598458,1.598666 c -0.138362,0.04001 -0.275057,0.08169 -0.411752,0.125027 L 26.6031,16.866457 c -0.141696,-0.101686 -0.325068,-0.123352 -0.485102,-0.05668 -0.160033,0.06667 -0.275056,0.21172 -0.301729,0.381746 l -0.275057,1.685353 c -0.126694,0.06502 -0.253385,0.133347 -0.378412,0.203371 l -1.555325,-0.708484 c -0.158366,-0.07167 -0.341738,-0.05668 -0.486768,0.04001 -0.145029,0.09669 -0.22838,0.260049 -0.221712,0.433423 l 0.06001,1.710358 c -0.110023,0.08834 -0.220046,0.178355 -0.328402,0.270046 l -1.667014,-0.393408 c -0.168368,-0.04001 -0.346739,0.01156 -0.468431,0.133347 -0.121694,0.121704 -0.173368,0.300062 -0.133361,0.470099 l 0.393414,1.667012 c -0.09168,0.108359 -0.181704,0.216717 -0.270056,0.328401 l -1.710356,-0.06 c -0.173369,-0.0049 -0.336737,0.07834 -0.433423,0.221716 -0.09669,0.143371 -0.11169,0.328404 -0.04001,0.486771 l 0.708481,1.555322 c -0.06835,0.125027 -0.136695,0.250054 -0.203377,0.378412 l -1.685351,0.275043 c -0.171702,0.02831 -0.315066,0.141695 -0.381746,0.303398 -0.06668,0.161715 -0.04501,0.343403 0.05667,0.485102 l 0.996875,1.385287 c -0.04335,0.136698 -0.08502,0.275043 -0.125027,0.413419 l -1.598663,0.598472 c -0.161699,0.06003 -0.281723,0.201695 -0.315064,0.371744 -0.03334,0.170035 0.02334,0.345073 0.150029,0.46343 l 1.250261,1.166912 c -0.01499,0.141696 -0.03,0.281715 -0.04167,0.42342 l -1.455301,0.900189 c -0.146695,0.09169 -0.236716,0.251719 -0.236716,0.426756 0,0.175033 0.09002,0.335069 0.236716,0.425087 l 1.455304,0.900189 c 0.01167,0.141695 0.02666,0.283391 0.04167,0.42342 l -1.250261,1.166911 c -0.126694,0.118355 -0.183372,0.293395 -0.150029,0.46343 0.03334,0.170035 0.153365,0.310063 0.315065,0.371744 l 1.598667,0.598458 c 0.04001,0.138373 0.08168,0.276718 0.125027,0.413419 l -0.996879,1.385287 c -0.101689,0.141696 -0.12336,0.323402 -0.05667,0.483435 0.06668,0.160039 0.211711,0.275071 0.381746,0.303399 l 1.685352,0.275042 c 0.06501,0.128349 0.13336,0.253376 0.203377,0.378412 l -0.708482,1.553656 c -0.07168,0.158363 -0.05667,0.341738 0.04001,0.48677 0.09669,0.145018 0.261722,0.228389 0.433423,0.221716 l 1.710356,-0.06 c 0.08835,0.111681 0.178372,0.220039 0.270057,0.328401 l -0.393415,1.667012 c -0.04001,0.170034 0.01,0.345072 0.133361,0.468433 0.123361,0.123351 0.300062,0.173356 0.468431,0.133346 l 1.667014,-0.39175 c 0.108356,0.09169 0.218379,0.181706 0.328402,0.270045 l -0.06001,1.712025 c -0.0067,0.173357 0.07835,0.338402 0.221713,0.433424 0.143362,0.09501 0.328401,0.111681 0.486768,0.03833 l 1.555324,-0.708479 c 0.125027,0.07003 0.251718,0.136697 0.378412,0.203371 l 0.275057,1.685353 c 0.02834,0.17171 0.141695,0.316733 0.303397,0.381745 0.1617,0.06502 0.343404,0.04501 0.485101,-0.055 l 1.385288,-0.998542 c 0.136695,0.04333 0.275057,0.08502 0.413419,0.125027 l 0.598459,1.598666 c 0.06001,0.161714 0.201707,0.281715 0.371744,0.315066 0.170034,0.03334 0.345072,-0.0234 0.46343,-0.150044 l 1.16691,-1.250259 c 0.140028,0.01675 0.283393,0.03002 0.425088,0.04168 l 0.900188,1.455304 c 0.09002,0.146693 0.251719,0.236708 0.425089,0.236708 0.173368,0 0.33507,-0.09002 0.425088,-0.236708 l 0.900188,-1.455304 c 0.141696,-0.01155 0.283391,-0.02658 0.423422,-0.04168 l 1.166911,1.250259 c 0.118353,0.126703 0.293391,0.183381 0.463429,0.150044 0.170034,-0.03333 0.310063,-0.153366 0.371745,-0.315066 l 0.598458,-1.598666 c 0.138373,-0.04001 0.276717,-0.08169 0.413418,-0.125027 l 1.385288,0.998542 c 0.14002,0.101685 0.3234,0.121704 0.483434,0.055 0.160039,-0.06667 0.275071,-0.21172 0.303399,-0.381745 l 0.275042,-1.685353 c 0.126702,-0.06667 0.253377,-0.135023 0.378412,-0.203371 l 1.555322,0.708479 c 0.158364,0.07167 0.341739,0.05836 0.485102,-0.03833 0.14337,-0.09669 0.228388,-0.26005 0.221715,-0.433424 l -0.06003,-1.712025 c 0.110034,-0.08834 0.220039,-0.178354 0.328404,-0.270045 l 1.667012,0.39175 c 0.168359,0.04001 0.346739,-0.01011 0.468433,-0.133346 0.121705,-0.123352 0.173356,-0.300062 0.133376,-0.468433 l -0.39175,-1.667012 c 0.09169,-0.108359 0.181706,-0.216718 0.270044,-0.328401 l 1.710359,0.06 c 0.173356,0.0067 0.338402,-0.07669 0.433423,-0.221716 0.09501,-0.145017 0.111681,-0.328404 0.03834,-0.48677 l -0.70848,-1.553656 c 0.06835,-0.125027 0.136698,-0.251729 0.203371,-0.378412 l 1.685353,-0.275042 c 0.17171,-0.02658 0.315067,-0.141696 0.381746,-0.303399 0.06667,-0.161715 0.04501,-0.343402 -0.05667,-0.483435 l -0.996874,-1.385287 c 0.04333,-0.136698 0.08502,-0.275043 0.125027,-0.413419 l 1.598666,-0.598458 c 0.161714,-0.06168 0.281715,-0.201695 0.315066,-0.371744 0.03501,-0.170035 -0.02167,-0.345072 -0.150044,-0.46343 L 48.349272,34.57514 c 0.01503,-0.141696 0.02831,-0.281715 0.04169,-0.42342 l 1.455303,-0.900189 c 0.146694,-0.09002 0.236708,-0.25173 0.236708,-0.425087 0,-0.173356 -0.09001,-0.335071 -0.236708,-0.426756 z M 40.100914,44.47054 c -0.555117,-0.12003 -0.908524,-0.668473 -0.790165,-1.225255 0.118355,-0.556783 0.666804,-0.911857 1.221921,-0.790163 0.556781,0.118353 0.91019,0.666803 0.790164,1.223587 -0.12003,0.556784 -0.666806,0.91019 -1.22192,0.791831 z m -0.495102,-3.344031 c -0.506774,-0.108358 -1.005212,0.213367 -1.113568,0.721818 l -0.516774,2.412168 c -1.595332,0.723485 -3.364035,1.125235 -5.229423,1.125235 -1.907065,0 -3.715775,-0.421752 -5.339447,-1.176909 L 26.889826,41.798316 C 26.78147,41.291544 26.283033,40.968142 25.776261,41.076499 l -2.128777,0.456762 c -0.395083,-0.406752 -0.761826,-0.840175 -1.100229,-1.296937 h 10.357158 c 0.11669,0 0.19504,-0.02167 0.19504,-0.12835 v -3.664097 c 0,-0.106684 -0.07835,-0.128349 -0.19504,-0.128349 h -3.028964 v -2.322151 h 3.275682 c 0.298396,0 1.598667,0.08502 2.013753,1.747031 0.130028,0.510107 0.416753,2.173786 0.611795,2.705564 0.195052,0.596791 0.986871,1.788705 1.832047,1.788705 h 5.161077 c 0.05836,0 0.121705,-0.0067 0.186703,-0.0182 -0.35841,0.486768 -0.750157,0.946863 -1.173579,1.376953 l -2.177115,-0.468589 z m -14.322987,3.29402 c -0.555116,0.120029 -1.103564,-0.235061 -1.221922,-0.791831 -0.118357,-0.556783 0.23505,-1.105231 0.790165,-1.225254 0.555116,-0.118354 1.103563,0.235062 1.221921,0.79183 0.118357,0.556785 -0.23505,1.105231 -0.790164,1.225255 z M 21.353672,28.488876 c 0.23005,0.520108 -0.0033,1.130236 -0.523442,1.360283 -0.520108,0.230034 -1.126902,-0.0035 -1.358617,-0.525109 -0.230049,-0.52011 0.0033,-1.128569 0.523443,-1.360284 0.520108,-0.231711 1.126901,0.0035 1.358616,0.52511 z m -1.206918,2.862263 2.217129,-0.985206 c 0.473432,-0.210045 0.686809,-0.765159 0.476766,-1.240259 l -0.456762,-1.033548 h 1.795374 v 8.095021 h -3.624088 c -0.315067,-1.105231 -0.483435,-2.270473 -0.483435,-3.475725 0,-0.460096 0.02501,-0.915191 0.07168,-1.361949 z m 9.730361,-0.785163 v -2.385499 h 4.277558 c 0.221712,0 1.560325,0.255052 1.560325,1.25693 0,0.83184 -1.02688,1.128569 -1.872056,1.128569 z m 15.541573,2.147112 c 0,0.316734 -0.01155,0.630134 -0.03501,0.940197 h -1.300273 c -0.130025,0 -0.183381,0.08502 -0.183381,0.213366 v 0.596791 c 0,1.405293 -0.793501,1.712025 -1.486976,1.788709 -0.661806,0.07502 -1.395292,-0.276718 -1.48531,-0.681812 -0.390083,-2.193789 -1.040217,-2.662219 -2.067098,-3.472388 1.275265,-0.808502 2.600541,-2.002086 2.600541,-3.600752 0,-1.72536 -1.18358,-2.812252 -1.988746,-3.34403 -1.131903,-0.745154 -2.383832,-0.895187 -2.720567,-0.895187 H 23.304061 c 1.823731,-2.035411 4.294246,-3.475713 7.089829,-4.000821 l 1.58533,1.663678 c 0.358409,0.375079 0.951866,0.388417 1.326944,0.03002 l 1.773703,-1.697018 c 3.715773,0.691809 6.863096,3.005625 8.67514,6.179621 l -1.213586,2.742228 c -0.210044,0.4751 0.0049,1.030214 0.478433,1.240259 L 45.35701,31.4545 c 0.04001,0.415086 0.06168,0.835174 0.06168,1.258594 z M 31.980887,18.843531 c 0.410086,-0.393413 1.061888,-0.378412 1.455304,0.03334 0.393415,0.411752 0.376745,1.065221 -0.03501,1.45697 -0.410085,0.393414 -1.061887,0.378413 -1.455302,-0.03334 -0.393416,-0.411752 -0.376746,-1.063554 0.03501,-1.456971 z m 12.04918,9.695356 c 0.230035,-0.52011 0.838508,-0.755157 1.358616,-0.525111 0.520107,0.230035 0.75349,0.840175 0.523441,1.360286 -0.230036,0.520107 -0.838509,0.755157 -1.358616,0.525108 -0.520107,-0.230035 -0.75349,-0.840175 -0.523441,-1.360283 z"
       id="path26215"
       style="fill:#ffffff;fill-opacity:1;stroke:#870000;stroke-width:0.565351;stroke-dasharray:none;stroke-opacity:1" /></g></svg>
