<?xml version="1.0" encoding="UTF-8" standalone="no"?>
<!-- Created with Inkscape (http://www.inkscape.org/) -->

<svg
   width="64"
   height="64"
   viewBox="0 0 64 64"
   version="1.1"
   id="SVGRoot"
   sodipodi:docname="settings.svg"
   inkscape:version="1.2.2 (b0a8486541, 2022-12-01)"
   inkscape:export-filename="settings.svg"
   inkscape:export-xdpi="96"
   inkscape:export-ydpi="96"
   xmlns:inkscape="http://www.inkscape.org/namespaces/inkscape"
   xmlns:sodipodi="http://sodipodi.sourceforge.net/DTD/sodipodi-0.dtd"
   xmlns="http://www.w3.org/2000/svg"
   xmlns:svg="http://www.w3.org/2000/svg">
  <sodipodi:namedview
     id="namedview1858"
     pagecolor="#ffffff"
     bordercolor="#000000"
     borderopacity="0.25"
     inkscape:showpageshadow="2"
     inkscape:pageopacity="0.0"
     inkscape:pagecheckerboard="0"
     inkscape:deskcolor="#d1d1d1"
     inkscape:document-units="px"
     showgrid="true"
     inkscape:zoom="11.835749"
     inkscape:cx="24.290816"
     inkscape:cy="33.204489"
     inkscape:window-width="1920"
     inkscape:window-height="1000"
     inkscape:window-x="0"
     inkscape:window-y="0"
     inkscape:window-maximized="1"
     inkscape:current-layer="layer1">
    <inkscape:grid
       type="xygrid"
       id="grid1981" />
  </sodipodi:namedview>
  <defs
     id="defs1853" />
  <g
     inkscape:label="Layer 1"
     inkscape:groupmode="layer"
     id="layer1">
    <rect
       style="fill:#333333;fill-opacity:1;stroke:none;stroke-width:2.6948;stroke-linecap:round;stroke-linejoin:round;stroke-dasharray:none;stroke-opacity:1"
       id="rect2412"
       width="63.867985"
       height="63.535583"
       x="0.10852844"
       y="0.21805215" />
    <path
       d="m 28.457987,48.914047 -0.957292,-6.030936 q -0.909427,-0.335053 -1.914583,-0.909428 -1.005157,-0.574376 -1.77099,-1.196613 l -5.648021,2.584683 -4.451406,-7.849788 5.169374,-3.781305 q -0.09573,-0.430782 -0.11966,-0.981222 -0.02393,-0.550443 -0.02393,-0.981224 0,-0.430781 0.02393,-0.981223 0.02393,-0.550444 0.11966,-0.981226 l -5.169374,-3.781302 4.451406,-7.849791 5.648021,2.584687 q 0.765833,-0.622239 1.77099,-1.196613 1.005156,-0.574376 1.914583,-0.861563 l 0.957292,-6.078802 h 8.807082 l 0.957293,6.030938 q 0.909427,0.335051 1.938514,0.885494 1.02909,0.550442 1.747058,1.220546 l 5.648022,-2.584687 4.451407,7.849791 -5.169377,3.685573 q 0.09573,0.478647 0.119662,1.02909 0.02393,0.550443 0.02393,1.029088 0,0.478645 -0.02393,1.005157 -0.02393,0.526507 -0.119662,1.005154 l 5.169377,3.73344 -4.451407,7.849788 -5.648022,-2.584683 q -0.765833,0.622237 -1.747058,1.220545 -0.981223,0.598308 -1.938514,0.885496 l -0.957293,6.030936 z m 2.297499,-2.871876 h 4.212085 l 0.670104,-5.360835 q 1.57953,-0.382913 2.991536,-1.196612 1.412005,-0.813699 2.560755,-1.962447 l 5.073646,2.20177 1.914584,-3.446252 -4.499272,-3.302654 q 0.191459,-0.813698 0.311119,-1.603461 0.119661,-0.789768 0.119661,-1.603466 0,-0.813698 -0.09573,-1.603465 -0.09573,-0.789764 -0.335052,-1.603461 l 4.499272,-3.302658 -1.914584,-3.44625 -5.073646,2.201772 q -1.100886,-1.244481 -2.48896,-2.082109 -1.388071,-0.837631 -3.063331,-1.076955 l -0.670104,-5.360832 h -4.212085 l -0.670104,5.360832 q -1.627395,0.335053 -3.039401,1.148751 -1.412005,0.813698 -2.512891,2.010313 l -5.073645,-2.201772 -1.914583,3.44625 4.49927,3.302658 q -0.191458,0.813697 -0.311119,1.603461 -0.119663,0.789767 -0.119663,1.603465 0,0.813698 0.119663,1.603466 0.119661,0.789763 0.311119,1.603461 l -4.49927,3.302654 1.914583,3.446252 5.073645,-2.20177 q 1.148751,1.148748 2.560756,1.962447 1.412006,0.813699 2.991536,1.196612 z m 2.106042,-10.051564 q 2.584687,0 4.403541,-1.818853 1.818855,-1.818853 1.818855,-4.40354 0,-2.584687 -1.818855,-4.403542 -1.818854,-1.818854 -4.403541,-1.818854 -2.584687,0 -4.403541,1.818854 -1.818855,1.818855 -1.818855,4.403542 0,2.584687 1.818855,4.40354 1.818854,1.818853 4.403541,1.818853 z m 0,-6.222393 z"
       id="path1988"
       style="display:none;fill:#ffffff;fill-opacity:1;stroke:#ffffff;stroke-width:0.377953;stroke-linecap:round;stroke-linejoin:round;stroke-dasharray:none;stroke-opacity:1" />
    <path
       style="display:inline;fill:#ffffff;fill-opacity:1;stroke:#ffffff;stroke-width:1.92;stroke-linecap:round;stroke-linejoin:round;stroke-dasharray:none;stroke-opacity:1"
       d="m 30.951676,47.7062 c -0.01601,-0.432466 -0.680253,-5.253566 -0.729877,-5.297443 -0.0396,-0.03501 -0.313183,-0.129306 -0.60797,-0.209545 -1.512137,-0.411596 -3.331362,-1.45391 -4.551947,-2.608012 -0.344665,-0.325891 -0.483071,-0.406141 -0.633674,-0.367411 -0.105979,0.02725 -1.238004,0.505269 -2.515612,1.062254 -1.277607,0.556985 -2.347974,0.985839 -2.378593,0.95301 -0.102217,-0.109596 -1.689911,-2.990329 -1.662359,-3.016207 0.01493,-0.01402 0.996661,-0.737536 2.18163,-1.607814 1.184969,-0.870278 2.170355,-1.5966 2.189746,-1.614048 0.01939,-0.01745 -0.0555,-0.478442 -0.166434,-1.024428 -0.275624,-1.356604 -0.280111,-3.281623 -0.01068,-4.583519 0.100977,-0.487929 0.183709,-0.930751 0.18385,-0.984049 1.44e-4,-0.0533 -0.968335,-0.806329 -2.152169,-1.6734 -1.183834,-0.867072 -2.16943,-1.60401 -2.190215,-1.637641 -0.0376,-0.06084 1.464256,-2.830118 1.618504,-2.984366 0.05151,-0.05151 0.975545,0.307125 2.544774,0.987674 l 2.463896,1.068552 0.526406,-0.487859 c 0.758432,-0.702893 1.69829,-1.38007 2.479481,-1.78649 0.682166,-0.354902 2.075803,-0.865786 2.368367,-0.868204 0.08608,-7.1e-4 0.204996,-0.03206 0.264248,-0.06966 0.07034,-0.04464 0.209381,-0.887202 0.400631,-2.427788 0.161096,-1.29768 0.313947,-2.482985 0.33967,-2.634011 l 0.04677,-0.274591 h 1.889765 1.889765 l 0.04951,0.316836 c 0.02723,0.17426 0.16337,1.248337 0.302529,2.386837 0.13916,1.1385 0.272792,2.18699 0.296961,2.329977 0.04285,0.253521 0.06637,0.265527 0.946984,0.483433 1.538685,0.380745 2.772685,1.089073 4.142877,2.378051 l 0.691481,0.650495 2.462486,-1.069685 c 1.354368,-0.588326 2.493941,-1.037802 2.532386,-0.998835 0.13826,0.140141 1.668874,2.944384 1.636074,2.997456 -0.01846,0.02987 -1.003412,0.764654 -2.188778,1.632848 -1.185365,0.868194 -2.15521,1.617279 -2.15521,1.664635 0,0.04736 0.08153,0.472278 0.181188,0.944271 0.269665,1.277225 0.26742,3.116355 -0.0056,4.557019 -0.123255,0.650479 -0.173635,1.107508 -0.126734,1.149706 0.04281,0.03852 1.028355,0.764485 2.190089,1.613251 1.161735,0.848765 2.123508,1.552977 2.137273,1.564914 0.01376,0.01194 -0.355725,0.701143 -0.821089,1.531572 -0.540534,0.964568 -0.889151,1.501756 -0.965274,1.487402 -0.06554,-0.01236 -1.167506,-0.478109 -2.448823,-1.035 -1.281312,-0.556892 -2.372865,-1.012531 -2.425669,-1.012531 -0.05281,0 -0.349294,0.229316 -0.658865,0.509592 -1.15436,1.045121 -2.684021,1.925258 -4.194916,2.413672 -0.688191,0.222465 -0.857632,0.310184 -0.908838,0.470499 -0.04871,0.152503 -0.655223,4.863189 -0.655223,5.089013 0,0.04696 -3.801085,0.07652 -3.802822,0.02957 z m 3.278148,-9.745194 c 2.297121,-0.474484 4.20222,-2.254347 4.827278,-4.509946 0.471392,-1.701076 0.233411,-3.579604 -0.645929,-5.098698 -0.467812,-0.808165 -1.692962,-1.972112 -2.534083,-2.407495 -1.000059,-0.517652 -1.78751,-0.69994 -3.023612,-0.69994 -1.921823,0 -3.179179,0.518495 -4.520406,1.864077 -0.872107,0.874939 -1.253131,1.445154 -1.565104,2.342233 -0.411691,1.183818 -0.476251,2.666399 -0.168545,3.870575 0.465915,1.823312 2.014678,3.605741 3.743409,4.308187 1.119582,0.454927 2.654322,0.585622 3.886992,0.331007 z"
       id="path13508" />
  </g>
</svg>
