<?xml version="1.0" encoding="UTF-8" standalone="no"?>
<!-- Created with Inkscape (http://www.inkscape.org/) -->

<svg
   width="64.0px"
   height="64.0px"
   viewBox="0 0 64.0 64.0"
   version="1.1"
   id="SVGRoot"
   sodipodi:docname="text.svg"
   inkscape:version="1.2.2 (b0a8486541, 2022-12-01)"
   inkscape:export-filename="../Pictures/txt.svg"
   inkscape:export-xdpi="96"
   inkscape:export-ydpi="96"
   xmlns:inkscape="http://www.inkscape.org/namespaces/inkscape"
   xmlns:sodipodi="http://sodipodi.sourceforge.net/DTD/sodipodi-0.dtd"
   xmlns="http://www.w3.org/2000/svg"
   xmlns:svg="http://www.w3.org/2000/svg">
  <sodipodi:namedview
     id="namedview248"
     pagecolor="#ffffff"
     bordercolor="#000000"
     borderopacity="0.25"
     inkscape:showpageshadow="2"
     inkscape:pageopacity="0.0"
     inkscape:pagecheckerboard="0"
     inkscape:deskcolor="#d1d1d1"
     inkscape:document-units="px"
     showgrid="true"
     inkscape:zoom="3.3344391"
     inkscape:cx="80.223387"
     inkscape:cy="33.288957"
     inkscape:window-width="1920"
     inkscape:window-height="1000"
     inkscape:window-x="0"
     inkscape:window-y="0"
     inkscape:window-maximized="1"
     inkscape:current-layer="layer1">
    <inkscape:grid
       type="xygrid"
       id="grid371" />
  </sodipodi:namedview>
  <defs
     id="defs243" />
  <g
     inkscape:label="Layer 1"
     inkscape:groupmode="layer"
     id="layer1">
    <rect
       style="fill:#0600ff;fill-opacity:1;stroke:none;stroke-width:2.005;stroke-linecap:round;stroke-linejoin:round"
       id="rect1372"
       width="64"
       height="64"
       x="-1.9073486e-06"
       y="0"
       ry="0" />
    <g
       id="path286"
       style="stroke:#83e7f3;stroke-opacity:1;stroke-width:1.2;stroke-dasharray:none">
      <path
         style="color:#000000;fill:#000000;stroke-width:1.2;stroke-linecap:round;stroke:#83e7f3;stroke-opacity:1;stroke-dasharray:none"
         d="M 16.015062,24.860235 35,25.07415"
         id="path1151" />
      <path
         style="color:#000000;fill:#ffffff;stroke-linecap:round;stroke:#83e7f3;stroke-opacity:1;stroke-width:1.2;stroke-dasharray:none"
         d="m 16.025391,24.009766 a 0.85000002,0.85000002 0 0 0 -0.859375,0.841796 0.85000002,0.85000002 0 0 0 0.839843,0.859375 l 18.984375,0.212891 a 0.85000002,0.85000002 0 0 0 0.859375,-0.839844 0.85000002,0.85000002 0 0 0 -0.839843,-0.859375 z"
         id="path1153" />
    </g>
    <g
       id="path286-3"
       style="stroke:#83e7f3;stroke-opacity:1;stroke-width:1.2;stroke-dasharray:none">
      <path
         style="color:#000000;fill:#000000;stroke-width:1.2;stroke-linecap:round;stroke:#83e7f3;stroke-opacity:1;stroke-dasharray:none"
         d="M 15.826342,30.961696 44,31.175611"
         id="path1157" />
      <path
         style="color:#000000;fill:#ffffff;stroke-linecap:round;stroke:#83e7f3;stroke-opacity:1;stroke-width:1.2;stroke-dasharray:none"
         d="m 15.832031,30.111328 a 0.85000002,0.85000002 0 0 0 -0.855468,0.84375 0.85000002,0.85000002 0 0 0 0.84375,0.857422 l 28.173828,0.212891 a 0.85000002,0.85000002 0 0 0 0.855468,-0.84375 0.85000002,0.85000002 0 0 0 -0.84375,-0.855469 z"
         id="path1159" />
    </g>
    <g
       id="path286-6"
       style="stroke:#83e7f3;stroke-opacity:1;stroke-width:1.2;stroke-dasharray:none">
      <path
         style="color:#000000;fill:#000000;stroke-width:1.2;stroke-linecap:round;stroke:#83e7f3;stroke-opacity:1;stroke-dasharray:none"
         d="m 15.5,37.039854 17,0.213915"
         id="path1163" />
      <path
         style="color:#000000;fill:#ffffff;stroke-linecap:round;stroke:#83e7f3;stroke-opacity:1;stroke-width:1.2;stroke-dasharray:none"
         d="m 15.509766,36.189453 a 0.85000002,0.85000002 0 0 0 -0.859375,0.839844 0.85000002,0.85000002 0 0 0 0.839843,0.861328 l 17,0.212891 a 0.85000002,0.85000002 0 0 0 0.859375,-0.839844 0.85000002,0.85000002 0 0 0 -0.839843,-0.859375 z"
         id="path1165" />
    </g>
    <g
       id="path286-7"
       style="stroke:#83e7f3;stroke-opacity:1;stroke-width:1.2;stroke-dasharray:none">
      <path
         style="color:#000000;fill:#000000;stroke-width:1.2;stroke-linecap:round;stroke:#83e7f3;stroke-opacity:1;stroke-dasharray:none"
         d="M 15.699473,43.213604 45,43.427519"
         id="path1169" />
      <path
         style="color:#000000;fill:#ffffff;stroke-linecap:round;stroke:#83e7f3;stroke-opacity:1;stroke-width:1.2;stroke-dasharray:none"
         d="m 15.705078,42.363281 a 0.85000002,0.85000002 0 0 0 -0.855469,0.84375 0.85000002,0.85000002 0 0 0 0.84375,0.857422 l 29.300782,0.212891 a 0.85000002,0.85000002 0 0 0 0.855468,-0.84375 0.85000002,0.85000002 0 0 0 -0.84375,-0.855469 z"
         id="path1171" />
    </g>
  </g>
</svg>
